<svg width="19" height="19" viewBox="0 0 19 19" fill="none" xmlns="http://www.w3.org/2000/svg">
<g clip-path="url(#clip0_3211_233606)">
<path d="M14.1429 12.049C14.8539 11.2967 15.4877 10.4547 16.0554 9.58732C16.7703 8.49612 17.1444 7.25699 16.916 5.94727C16.6246 4.27751 15.3973 2.97387 13.7489 2.65183C12.0421 2.31799 10.4014 3.06525 9.52757 4.53366C9.46074 4.64557 9.24776 4.96741 9.24776 4.96741C9.24776 4.96741 9.03212 4.64599 8.96507 4.53422C8.0875 3.06755 6.44732 2.32439 4.74033 2.66161C3.09263 2.98692 1.86872 4.29299 1.57975 5.96248C1.35312 7.27264 1.73055 8.51103 2.44761 9.60081C3.01701 10.467 3.65248 11.3069 4.36497 12.0586C5.82726 13.6018 7.54282 15.073 9.25826 16.4143C10.971 15.0696 12.6837 13.595 14.1429 12.049Z" stroke="#131518" stroke-width="1.4" stroke-miterlimit="10" stroke-linejoin="round"/>
</g>
<defs>
<clipPath id="clip0_3211_233606">
<rect width="18" height="18" fill="white" transform="translate(0.245605 0.504395) rotate(-0.0284019)"/>
</clipPath>
</defs>
</svg>
