<svg width="32" height="33" viewBox="0 0 32 33" fill="none" xmlns="http://www.w3.org/2000/svg">
<path opacity="0.2" d="M16 2.5C23.732 2.5 30 8.76801 30 16.5C30 24.232 23.732 30.5 16 30.5C13.6165 30.5 11.3718 29.904 9.40723 28.8535L3.53418 30.1592C2.81968 30.318 2.18204 29.6803 2.34082 28.9658L3.64648 23.0928C2.59597 21.1282 2 18.8835 2 16.5C2 8.76801 8.26801 2.5 16 2.5Z" fill="#007AFF"/>
<path d="M10 15C10.8284 15 11.5 15.6716 11.5 16.5C11.5 17.3284 10.8284 18 10 18C9.17157 18 8.5 17.3284 8.5 16.5C8.5 15.6716 9.17157 15 10 15ZM16 15C16.8284 15 17.5 15.6716 17.5 16.5C17.5 17.3284 16.8284 18 16 18C15.1716 18 14.5 17.3284 14.5 16.5C14.5 15.6716 15.1716 15 16 15ZM22 15C22.8284 15 23.5 15.6716 23.5 16.5C23.5 17.3284 22.8284 18 22 18C21.1716 18 20.5 17.3284 20.5 16.5C20.5 15.6716 21.1716 15 22 15Z" fill="#007AFF"/>
</svg>
