<svg width="40" height="41" viewBox="0 0 40 41" fill="none" xmlns="http://www.w3.org/2000/svg">
<g clip-path="url(#clip0_3211_233840)">
<circle opacity="0.9" cx="19.5" cy="20" r="16.5" fill="#BCED78"/>
<path d="M14.9033 21.4912C15.1793 21.4912 15.3993 21.7159 15.4434 21.9883C15.7141 23.6685 17.3335 25.0967 19.4902 25.0967C21.6468 25.0966 23.2654 23.6685 23.5361 21.9883C23.5802 21.7159 23.8002 21.4913 24.0762 21.4912H25.4805C25.7563 21.4915 25.9817 21.7155 25.958 21.9902C25.6813 25.1628 22.7929 27.4999 19.4902 27.5C16.1875 27.5 13.2982 25.1629 13.0215 21.9902C12.9978 21.7153 13.224 21.4912 13.5 21.4912H14.9033Z" fill="#5FBE00"/>
<path d="M13 14.5C14.1046 14.5 15 15.3954 15 16.5C15 17.6046 14.1046 18.5 13 18.5C11.8954 18.5 11 17.6046 11 16.5C11 15.3954 11.8954 14.5 13 14.5Z" fill="#5FBE00"/>
<path d="M26 14.5C27.1046 14.5 28 15.3954 28 16.5C28 17.6046 27.1046 18.5 26 18.5C24.8954 18.5 24 17.6046 24 16.5C24 15.3954 24.8954 14.5 26 14.5Z" fill="#5FBE00"/>
</g>
<defs>
<clipPath id="clip0_3211_233840">
<rect width="33" height="33" fill="white" transform="translate(3 3.5)"/>
</clipPath>
</defs>
</svg>
