<svg width="16" height="16" viewBox="0 0 16 16" fill="none" xmlns="http://www.w3.org/2000/svg">
<g clip-path="url(#clip0_3211_233879)">
<path fill-rule="evenodd" clip-rule="evenodd" d="M8.64479 9.26735H7.35839L7.23589 4H8.76729L8.64479 9.26735ZM8.59119 11.7498C8.42954 11.9166 8.23299 12 8.00159 12C7.77019 12 7.57324 11.9166 7.41074 11.7498C7.24824 11.583 7.16699 11.3787 7.16699 11.1368C7.16699 10.8949 7.24824 10.6909 7.41074 10.5251C7.57324 10.3592 7.77019 10.2763 8.00159 10.2763C8.23299 10.2763 8.42954 10.3592 8.59119 10.5251C8.75284 10.6909 8.83364 10.8949 8.83364 11.1368C8.83364 11.3787 8.75284 11.583 8.59119 11.7498Z" fill="#99A1A8"/>
<path d="M8 1.25C11.7279 1.25 14.75 4.27208 14.75 8C14.75 11.7279 11.7279 14.75 8 14.75C4.27208 14.75 1.25 11.7279 1.25 8C1.25 4.27208 4.27208 1.25 8 1.25Z" stroke="#99A1A8" stroke-width="1.23636"/>
</g>
<defs>
<clipPath id="clip0_3211_233879">
<rect width="16" height="16" fill="white"/>
</clipPath>
</defs>
</svg>
