<svg width="24" height="24" viewBox="0 0 24 24" fill="none" xmlns="http://www.w3.org/2000/svg">
<path fill-rule="evenodd" clip-rule="evenodd" d="M11.3248 2.26098C11.625 1.74629 12.3751 1.74638 12.6754 2.26098L23.1446 20.2163C23.4448 20.7311 23.0696 21.3749 22.4693 21.375H1.53159C0.931217 21.375 0.555376 20.7312 0.855561 20.2163L11.3248 2.26098ZM12.0001 15.375C11.3788 15.3751 10.8751 15.8787 10.8751 16.5C10.8751 17.1213 11.3788 17.6249 12.0001 17.625C12.6214 17.625 13.1251 17.1213 13.1251 16.5C13.1251 15.8787 12.6214 15.375 12.0001 15.375ZM11.4727 8.625C11.1488 8.625 10.8916 8.89786 10.911 9.22119L11.1812 13.7212C11.1991 14.0181 11.4448 14.2499 11.7423 14.25H12.2579C12.5555 14.25 12.8018 14.0182 12.8197 13.7212L13.0892 9.22119C13.1086 8.89792 12.852 8.6251 12.5282 8.625H11.4727Z" fill="#FF5753"/>
</svg>
