<svg width="22" height="22" viewBox="0 0 22 22" fill="none" xmlns="http://www.w3.org/2000/svg">
<g clip-path="url(#clip0_3430_16439)">
<path d="M10.9963 14.3656C12.7765 14.3655 14.2196 12.8669 14.2196 11.0183C14.2197 9.16963 12.7766 7.67105 10.9965 7.67108C9.21634 7.67112 7.77323 9.16976 7.77319 11.0184C7.77316 12.867 9.21621 14.3656 10.9963 14.3656Z" stroke="#131518" stroke-width="1.7" stroke-linecap="round" stroke-linejoin="round"/>
<path d="M8.95426 18.117C8.95555 18.1174 8.9569 18.1176 8.95825 18.1176V18.1176C8.96458 18.1176 8.97008 18.122 8.97154 18.1282L9.38638 19.8818C9.4931 20.333 9.89591 20.6516 10.3595 20.6516L11.632 20.6516C12.0956 20.6516 12.4984 20.3329 12.6052 19.8818L13.0198 18.1293C13.0214 18.1224 13.0275 18.1176 13.0346 18.1176V18.1176C13.0361 18.1176 13.0375 18.1173 13.039 18.1169C13.3201 18.0318 13.5956 17.9283 13.8638 17.807C14.1969 17.6565 14.5855 17.6601 14.8954 17.8539L15.8589 18.4563C16.261 18.7077 16.7844 18.6422 17.112 18.2993L18.0441 17.3241C18.3503 17.0037 18.4091 16.52 18.1886 16.1355L17.5513 15.0248C17.38 14.7261 17.3796 14.3624 17.5157 14.046C17.5659 13.9294 17.6128 13.8113 17.6562 13.6918C17.7793 13.3537 18.0462 13.0809 18.3944 12.9902L19.5239 12.696C19.9644 12.5812 20.2719 12.1835 20.2719 11.7283L20.2719 10.3144C20.2719 9.85729 19.9619 9.45837 19.519 9.34543L17.8436 8.91822C17.8363 8.91637 17.8313 8.90983 17.8313 8.90234V8.90234C17.8313 8.90095 17.8311 8.89956 17.8307 8.89821C17.75 8.58866 17.6461 8.28646 17.52 7.99435C17.3825 7.67583 17.3812 7.30923 17.5538 7.00829L18.1874 5.904C18.4086 5.51844 18.3487 5.03317 18.0405 4.71292L17.112 3.74827C16.7842 3.40769 16.2627 3.34318 15.8618 3.5936L14.9036 4.19211C14.5894 4.38831 14.1952 4.38896 13.8591 4.23334C13.593 4.11009 13.3191 4.00505 13.0393 3.91897C13.0378 3.91852 13.0363 3.9183 13.0348 3.9183V3.9183C13.0278 3.9183 13.0217 3.91347 13.0201 3.90663L12.6055 2.1541C12.4988 1.70296 12.096 1.38432 11.6324 1.38433L10.3599 1.38436C9.89626 1.38437 9.49344 1.70301 9.38671 2.15416L8.97179 3.90792C8.97034 3.91405 8.96486 3.91837 8.95857 3.91837V3.91837C8.95718 3.91837 8.9558 3.91859 8.95447 3.91901C8.67015 4.00901 8.39106 4.1155 8.11853 4.23792C7.79152 4.38481 7.41107 4.37849 7.10624 4.18986L6.13013 3.58583C5.72972 3.33806 5.21069 3.40319 4.88391 3.74223L3.95237 4.70871C3.64371 5.02894 3.58364 5.51453 3.80495 5.9003L4.43791 7.00363C4.61069 7.30482 4.60925 7.67177 4.47135 7.99046C4.34501 8.28247 4.2408 8.58457 4.1598 8.89404C4.15945 8.89539 4.15927 8.89678 4.15927 8.89818V8.89818C4.15927 8.90565 4.1542 8.91218 4.14695 8.91403L2.47151 9.3413C2.02857 9.45426 1.71859 9.85319 1.71859 10.3103L1.71856 11.7242C1.71855 12.1794 2.02597 12.5771 2.46648 12.6919L3.59162 12.9849C3.94208 13.0762 4.20974 13.3522 4.33349 13.6925C4.37589 13.8091 4.42173 13.9244 4.47093 14.0381C4.60892 14.3569 4.61047 14.7241 4.43758 15.0255L3.80326 16.1311C3.58265 16.5157 3.64154 16.9995 3.94794 17.3199L4.88084 18.2954C5.20859 18.638 5.73196 18.7034 6.13395 18.4519L7.0947 17.8507C7.40541 17.6563 7.79518 17.653 8.12881 17.8048C8.39714 17.9268 8.67284 18.0311 8.95426 18.117Z" stroke="#131518" stroke-width="1.7" stroke-linecap="round" stroke-linejoin="round"/>
</g>
<defs>
<clipPath id="clip0_3430_16439">
<rect width="22" height="22" fill="white"/>
</clipPath>
</defs>
</svg>
