<svg width="22" height="22" viewBox="0 0 22 22" fill="none" xmlns="http://www.w3.org/2000/svg">
<path d="M3.97864 15.7615C4.65721 15.7615 5.20723 16.3115 5.20728 16.9901C5.20728 17.6687 4.65724 18.2188 3.97864 18.2188C3.30007 18.2187 2.75 17.6687 2.75 16.9901C2.75005 16.3116 3.3001 15.7615 3.97864 15.7615ZM18.3725 16.1126C18.8571 16.1127 19.25 16.5055 19.25 16.9901C19.25 17.4748 18.8571 17.8675 18.3725 17.8676H8.17682C7.69212 17.8676 7.29932 17.4748 7.29932 16.9901C7.29937 16.5055 7.69215 16.1126 8.17682 16.1126H18.3725ZM3.97864 9.76935C4.65713 9.76935 5.20709 10.3195 5.20728 10.998C5.20728 11.6766 4.65724 12.2266 3.97864 12.2266C3.30007 12.2266 2.75 11.6766 2.75 10.998C2.75018 10.3196 3.30018 9.76939 3.97864 9.76935ZM18.3725 10.1205C18.857 10.1206 19.2498 10.5135 19.25 10.998C19.25 11.4827 18.8571 11.8754 18.3725 11.8755H8.17682C7.69212 11.8755 7.29932 11.4827 7.29932 10.998C7.2995 10.5134 7.69223 10.1205 8.17682 10.1205H18.3725ZM3.97864 3.78125C4.65721 3.78125 5.20723 4.33132 5.20728 5.00989C5.20728 5.68849 4.65724 6.23853 3.97864 6.23853C3.30007 6.23848 2.75 5.68846 2.75 5.00989C2.75005 4.33135 3.3001 3.7813 3.97864 3.78125ZM18.3725 4.13239C18.8571 4.13247 19.25 4.52526 19.25 5.00989C19.25 5.49455 18.8571 5.88731 18.3725 5.88739H8.17682C7.69212 5.88737 7.29932 5.49459 7.29932 5.00989C7.29936 4.52522 7.69215 4.13241 8.17682 4.13239H18.3725Z" fill="#131518"/>
</svg>
