<svg width="80" height="80" viewBox="0 0 80 80" fill="none" xmlns="http://www.w3.org/2000/svg">
<path d="M4 40C4 24.536 16.536 12 32 12H48C63.464 12 76 24.536 76 40C76 55.464 63.464 68 48 68H32C16.536 68 4 55.464 4 40Z" fill="#BCED78"/>
<path d="M40 12H48C63.464 12 76 24.536 76 40C76 55.464 63.464 68 48 68H40V12Z" fill="#74D118"/>
<path opacity="0.7" d="M24 51C25.6569 51 27 52.3431 27 54C27 55.6569 25.6569 57 24 57C22.3431 57 21 55.6569 21 54C21 52.3431 22.3431 51 24 51ZM40 51C41.6569 51 43 52.3431 43 54C43 55.6569 41.6569 57 40 57C38.3431 57 37 55.6569 37 54C37 52.3431 38.3431 51 40 51ZM56 51C57.6569 51 59 52.3431 59 54C59 55.6569 57.6569 57 56 57C54.3431 57 53 55.6569 53 54C53 52.3431 54.3431 51 56 51ZM24 37C25.6569 37 27 38.3431 27 40C27 41.6569 25.6569 43 24 43C22.3431 43 21 41.6569 21 40C21 38.3431 22.3431 37 24 37ZM40 37C41.6569 37 43 38.3431 43 40C43 41.6569 41.6569 43 40 43C38.3431 43 37 41.6569 37 40C37 38.3431 38.3431 37 40 37ZM56 37C57.6569 37 59 38.3431 59 40C59 41.6569 57.6569 43 56 43C54.3431 43 53 41.6569 53 40C53 38.3431 54.3431 37 56 37ZM24 23C25.6569 23 27 24.3431 27 26C27 27.6569 25.6569 29 24 29C22.3431 29 21 27.6569 21 26C21 24.3431 22.3431 23 24 23ZM40 23C41.6569 23 43 24.3431 43 26C43 27.6569 41.6569 29 40 29C38.3431 29 37 27.6569 37 26C37 24.3431 38.3431 23 40 23ZM56 23C57.6569 23 59 24.3431 59 26C59 27.6569 57.6569 29 56 29C54.3431 29 53 27.6569 53 26C53 24.3431 54.3431 23 56 23Z" fill="#5AA70D"/>
</svg>
