<svg width="32" height="33" viewBox="0 0 32 33" fill="none" xmlns="http://www.w3.org/2000/svg">
<rect opacity="0.25" x="4" y="3.5" width="24" height="26" rx="1" fill="#82DC28"/>
<path d="M10 18.5C10.8284 18.5 11.5 19.1716 11.5 20C11.5 20.8284 10.8284 21.5 10 21.5C9.17157 21.5 8.5 20.8284 8.5 20C8.5 19.1716 9.17157 18.5 10 18.5Z" fill="#54A800"/>
<path d="M18.5 19C19.0523 19 19.5 19.4477 19.5 20C19.5 20.5523 19.0523 21 18.5 21H14.5C13.9477 21 13.5 20.5523 13.5 20C13.5 19.4477 13.9477 19 14.5 19H18.5Z" fill="#54A800"/>
<path d="M10 13.5C10.8284 13.5 11.5 14.1716 11.5 15C11.5 15.8284 10.8284 16.5 10 16.5C9.17157 16.5 8.5 15.8284 8.5 15C8.5 14.1716 9.17157 13.5 10 13.5Z" fill="#54A800"/>
<path d="M22.5 14C23.0523 14 23.5 14.4477 23.5 15C23.5 15.5523 23.0523 16 22.5 16H14.5C13.9477 16 13.5 15.5523 13.5 15C13.5 14.4477 13.9477 14 14.5 14H22.5Z" fill="#54A800"/>
<path d="M10 8.5C10.8284 8.5 11.5 9.17157 11.5 10C11.5 10.8284 10.8284 11.5 10 11.5C9.17157 11.5 8.5 10.8284 8.5 10C8.5 9.17157 9.17157 8.5 10 8.5Z" fill="#54A800"/>
<path d="M22.5 9C23.0523 9 23.5 9.44772 23.5 10C23.5 10.5523 23.0523 11 22.5 11H14.5C13.9477 11 13.5 10.5523 13.5 10C13.5 9.44772 13.9477 9 14.5 9H22.5Z" fill="#54A800"/>
</svg>
