<svg width="80" height="80" viewBox="0 0 80 80" fill="none" xmlns="http://www.w3.org/2000/svg">
<path d="M4 40C4 24.536 16.536 12 32 12H48C63.464 12 76 24.536 76 40C76 55.464 63.464 68 48 68H32C16.536 68 4 55.464 4 40Z" fill="#BCED78"/>
<path d="M24.4278 24.4567C25.2802 23.0359 27.1233 22.575 28.544 23.4274C29.9647 24.2798 30.4257 26.1228 29.5733 27.5436L24.9571 35.2369C24.7479 35.5856 24.7708 36.0269 25.0147 36.3522L27.7872 40.0485C29.4947 42.3253 29.6538 45.4098 28.1895 47.8502L23.5733 55.5436C22.7209 56.9642 20.8778 57.4252 19.4571 56.5729C18.0364 55.7205 17.5755 53.8774 18.4278 52.4567L23.044 44.7633C23.2532 44.4147 23.2304 43.9733 22.9864 43.6481L20.214 39.9518C18.5064 37.6749 18.3474 34.5905 19.8116 32.15L24.4278 24.4567ZM40.4278 24.4567C41.2803 23.036 43.1233 22.575 44.544 23.4274C45.9647 24.2798 46.4257 26.1228 45.5733 27.5436L40.9571 35.2369C40.7479 35.5856 40.7708 36.0269 41.0147 36.3522L43.7872 40.0485C45.4947 42.3253 45.6538 45.4098 44.1895 47.8502L39.5733 55.5436C38.7209 56.9642 36.8778 57.4252 35.4571 56.5729C34.0364 55.7205 33.5755 53.8774 34.4278 52.4567L39.044 44.7633C39.2532 44.4147 39.2304 43.9733 38.9864 43.6481L36.214 39.9518C34.5064 37.6749 34.3474 34.5905 35.8116 32.15L40.4278 24.4567ZM56.4278 24.4567C57.2802 23.036 59.1233 22.575 60.544 23.4274C61.9647 24.2798 62.4257 26.1228 61.5733 27.5436L56.9571 35.2369C56.7479 35.5856 56.7708 36.0269 57.0147 36.3522L59.7872 40.0485C61.4947 42.3253 61.6538 45.4098 60.1895 47.8502L55.5733 55.5436C54.7209 56.9642 52.8778 57.4252 51.4571 56.5729C50.0364 55.7205 49.5755 53.8774 50.4278 52.4567L55.044 44.7633C55.2532 44.4147 55.2304 43.9733 54.9864 43.6481L52.214 39.9518C50.5064 37.6749 50.3474 34.5905 51.8116 32.15L56.4278 24.4567Z" fill="#5FBE00"/>
</svg>
