<svg width="80" height="80" viewBox="0 0 80 80" fill="none" xmlns="http://www.w3.org/2000/svg">
<path d="M22.0185 35.7586C22.6259 35.4138 23.3741 35.4138 23.9815 35.7586L39.0185 44.2936C39.6259 44.6384 40 45.2755 40 45.9649V63.0351C40 63.7245 39.6259 64.3616 39.0185 64.7064L23.9815 73.2414C23.3741 73.5862 22.6259 73.5862 22.0185 73.2414L6.9815 64.7064C6.37414 64.3616 6 63.7245 6 63.0351V45.9649C6 45.2755 6.37414 44.6384 6.9815 44.2936L22.0185 35.7586Z" fill="#74D118"/>
<path d="M56.0185 35.7586C56.6259 35.4138 57.3741 35.4138 57.9815 35.7586L73.0185 44.2936C73.6259 44.6384 74 45.2755 74 45.9649V63.0351C74 63.7245 73.6259 64.3616 73.0185 64.7064L57.9815 73.2414C57.3741 73.5862 56.6259 73.5862 56.0185 73.2414L40.9815 64.7064C40.3741 64.3616 40 63.7245 40 63.0351V45.9649C40 45.2755 40.3741 44.6384 40.9815 44.2936L56.0185 35.7586Z" fill="#BCED78"/>
<path d="M39.0185 6.75855C39.6259 6.41382 40.3741 6.41382 40.9815 6.75855L56.0185 15.2936C56.6259 15.6384 57 16.2755 57 16.9649V34.0351C57 34.7245 56.6259 35.3616 56.0185 35.7064L40.9815 44.2414C40.3741 44.5862 39.6259 44.5862 39.0185 44.2414L23.9815 35.7064C23.3741 35.3616 23 34.7245 23 34.0351V16.9649C23 16.2755 23.3741 15.6384 23.9815 15.2936L39.0185 6.75855Z" fill="#5AA70D"/>
</svg>
