<svg width="32" height="32" viewBox="0 0 32 32" fill="none" xmlns="http://www.w3.org/2000/svg">
<path d="M20 30C20 30.5523 19.5523 31 19 31H13C12.4477 31 12 30.5523 12 30V28.5H20V30ZM16 1C22.3513 1 27.5 6.14873 27.5 12.5C27.5 16.8589 25.0747 20.6511 21.5 22.6016V26C21.5 26.5523 21.0523 27 20.5 27H11.5C10.9477 27 10.5 26.5523 10.5 26V22.6016C6.92534 20.6511 4.5 16.8589 4.5 12.5C4.5 6.14873 9.64873 1 16 1Z" fill="#FFCE66"/>
<path opacity="0.6" d="M17 27H15V18H13.5C12.9477 18 12.5 17.5523 12.5 17C12.5 16.4477 12.9477 16 13.5 16H18.5C19.0523 16 19.5 16.4477 19.5 17C19.5 17.5523 19.0523 18 18.5 18H17V27Z" fill="#F99120"/>
</svg>
