<svg width="80" height="80" viewBox="0 0 80 80" fill="none" xmlns="http://www.w3.org/2000/svg">
<path d="M26.229 38.5018C29.3369 43.8849 28.7545 50.0396 24.9282 52.2487C21.1019 54.4579 15.4805 51.8849 12.3726 46.5018C9.88395 42.1913 10.2304 32.5323 10.4673 28.8542C10.5197 28.0398 11.1669 27.6661 11.8984 28.0279C15.2022 29.6618 23.7404 34.1913 26.229 38.5018Z" fill="#9EE646"/>
<path d="M68.0179 50.8798C59.818 59.0796 46.4779 59.0341 38.2219 50.7781C29.9659 42.5221 29.9204 29.182 38.1202 20.9821C44.4116 14.6907 63.3962 13.3063 71.8926 13.0027C74.2139 12.9197 76.0803 14.7861 75.9973 17.1074C75.6937 25.6038 74.3093 44.5884 68.0179 50.8798Z" fill="#74D118"/>
<path fill-rule="evenodd" clip-rule="evenodd" d="M54.278 34.722C55.2407 35.6846 55.2407 37.2452 54.278 38.2078L22.2078 70.278C21.2452 71.2407 19.6846 71.2407 18.722 70.278C17.7593 69.3154 17.7593 67.7548 18.722 66.7922L50.7922 34.722C51.7548 33.7593 53.3154 33.7593 54.278 34.722Z" fill="#5AA70D"/>
</svg>
