<svg width="32" height="32" viewBox="0 0 32 32" fill="none" xmlns="http://www.w3.org/2000/svg">
<path d="M26.0656 14.6715C25.4589 13.3041 24.577 12.0767 23.475 11.0663L22.5656 10.2307C22.5347 10.2031 22.4976 10.1835 22.4574 10.1736C22.4172 10.1638 22.3752 10.164 22.3351 10.1742C22.295 10.1844 22.258 10.2043 22.2273 10.2321C22.1967 10.26 22.1734 10.2949 22.1594 10.3339L21.7531 11.5013C21.5 12.2336 21.0344 12.9815 20.375 13.717C20.3312 13.7639 20.2812 13.7764 20.2469 13.7796C20.2125 13.7827 20.1594 13.7764 20.1125 13.7326C20.0687 13.6951 20.0469 13.6387 20.05 13.5824C20.1656 11.6984 19.6031 9.57346 18.3719 7.26073C17.3531 5.33919 15.9375 3.84014 14.1687 2.79487L12.8781 2.03439C12.7094 1.93424 12.4937 2.06568 12.5031 2.26284L12.5719 3.76503C12.6187 4.79152 12.5 5.69908 12.2187 6.45331C11.875 7.37652 11.3812 8.23402 10.75 9.00388C10.3107 9.53892 9.81278 10.0229 9.26562 10.4466C7.94783 11.4611 6.87629 12.761 6.13125 14.249C5.38804 15.75 5.00091 17.4025 5 19.0779C5 20.555 5.29062 21.9852 5.86562 23.3341C6.42083 24.6327 7.22206 25.8113 8.225 26.8047C9.2375 27.8062 10.4125 28.5948 11.7219 29.1425C13.0781 29.7121 14.5156 30 16 30C17.4844 30 18.9219 29.7121 20.2781 29.1456C21.5843 28.6012 22.772 27.8071 23.775 26.8079C24.7875 25.8064 25.5812 24.636 26.1344 23.3372C26.7085 21.9921 27.003 20.5439 27 19.081C27 17.5538 26.6875 16.0704 26.0656 14.6715Z" fill="#FF5753"/>
<ellipse opacity="0.4" cx="16" cy="24" rx="4" ry="5" fill="white"/>
</svg>
