<svg width="21" height="21" viewBox="0 0 21 21" fill="none" xmlns="http://www.w3.org/2000/svg">
<path fill-rule="evenodd" clip-rule="evenodd" d="M18 8.8315C18 14.2406 11 18.877 11 18.877C11 18.877 4 14.2406 4 8.8315C4 6.98704 4.7375 5.21812 6.05025 3.91389C7.36301 2.60966 9.14348 1.87695 11 1.87695C12.8565 1.87695 14.637 2.60966 15.9497 3.91389C17.2625 5.21812 18 6.98704 18 8.8315Z" stroke="black" stroke-width="1.4" stroke-linecap="round" stroke-linejoin="round"/>
<path d="M11.0463 11.2662C12.5805 11.2662 13.8241 10.0226 13.8241 8.48847C13.8241 6.95435 12.5805 5.71069 11.0463 5.71069C9.51221 5.71069 8.26855 6.95435 8.26855 8.48847C8.26855 10.0226 9.51221 11.2662 11.0463 11.2662Z" stroke="black" stroke-width="1.4" stroke-linecap="round" stroke-linejoin="round"/>
</svg>
