<svg width="80" height="80" viewBox="0 0 80 80" fill="none" xmlns="http://www.w3.org/2000/svg">
<path d="M40.0001 6C38.3432 6 37.0001 7.34315 37.0001 9V15C37.0001 16.6569 38.3432 18 40.0001 18C41.6569 18 43.0001 16.6569 43.0001 15V9C43.0001 7.34315 41.6569 6 40.0001 6Z" fill="#BCED78"/>
<path d="M13.8579 15.8579C12.714 17.0017 12.714 18.8562 13.8579 20L18 24.1421C19.1438 25.286 20.9983 25.286 22.1421 24.1421C23.286 22.9983 23.286 21.1438 22.1421 20L18 15.8579C16.8562 14.714 15.0017 14.714 13.8579 15.8579Z" fill="#BCED78"/>
<path d="M62 15.8579C63.1438 14.714 64.9983 14.714 66.1421 15.8579C67.286 17.0017 67.286 18.8562 66.1421 20L62 24.1421C60.8562 25.286 59.0017 25.286 57.8579 24.1421C56.714 22.9983 56.714 21.1438 57.8579 20L62 15.8579Z" fill="#BCED78"/>
<path d="M62 46.002C62 47.3673 61.8756 48.7035 61.6376 50H65C71.0751 50 76 54.9249 76 61C76 67.0751 71.0751 72 65 72H15C8.92487 72 4 67.0751 4 61C4 54.9249 8.92487 50 15 50H18.3624C18.1244 48.7035 18 47.3673 18 46.002C18 33.8517 27.8497 24.002 40 24.002C52.1503 24.002 62 33.8517 62 46.002Z" fill="#BCED78"/>
<circle cx="40" cy="46.002" r="14" fill="#5FBE00"/>
<circle cx="37.5" cy="41.002" r="3" fill="#D2F096"/>
</svg>
