<svg width="16" height="16" viewBox="0 0 16 16" fill="none" xmlns="http://www.w3.org/2000/svg">
<g clip-path="url(#clip0_4930_266622)">
<path fill-rule="evenodd" clip-rule="evenodd" d="M8.64577 9.26735H7.35937L7.23687 4H8.76827L8.64577 9.26735ZM8.59217 11.7498C8.43052 11.9166 8.23397 12 8.00257 12C7.77117 12 7.57422 11.9166 7.41172 11.7498C7.24922 11.583 7.16797 11.3787 7.16797 11.1368C7.16797 10.8949 7.24922 10.6909 7.41172 10.5251C7.57422 10.3592 7.77117 10.2763 8.00257 10.2763C8.23397 10.2763 8.43052 10.3592 8.59217 10.5251C8.75382 10.6909 8.83462 10.8949 8.83462 11.1368C8.83462 11.3787 8.75382 11.583 8.59217 11.7498Z" fill="#54A800"/>
<path d="M8 1.25C11.7279 1.25 14.75 4.27208 14.75 8C14.75 11.7279 11.7279 14.75 8 14.75C4.27208 14.75 1.25 11.7279 1.25 8C1.25 4.27208 4.27208 1.25 8 1.25Z" stroke="#54A800" stroke-width="1.23636"/>
</g>
<defs>
<clipPath id="clip0_4930_266622">
<rect width="16" height="16" fill="white"/>
</clipPath>
</defs>
</svg>
