<svg width="80" height="80" viewBox="0 0 80 80" fill="none" xmlns="http://www.w3.org/2000/svg">
<path d="M26.188 58.6372C25.4165 56.2298 25 53.6636 25 51C25 47.7018 26.1582 44.342 27.5689 41.3781C29.0182 38.333 30.9544 35.2565 32.9711 32.4104C35.8868 28.2955 39.128 24.4437 41.6907 21.5687C38.1631 16.8263 34.3463 12.5805 32.0657 10.1484C30.9342 8.94174 29.0658 8.94174 27.9343 10.1484C22.8239 15.5983 10 30.1552 10 39C10 48.7422 16.9655 56.8575 26.188 58.6372Z" fill="#BCED78"/>
<path d="M70 51C70 62.0457 61.0457 71 50 71C38.9543 71 30 62.0457 30 51C30 42.1552 42.8239 27.5983 47.9343 22.1484C49.0658 20.9417 50.9342 20.9417 52.0657 22.1484C57.1761 27.5983 70 42.1552 70 51Z" fill="#74D118"/>
<path fill-rule="evenodd" clip-rule="evenodd" d="M61.8928 51.6649C63.1824 52.1581 63.828 53.6034 63.3347 54.893C61.6619 59.2667 58.2665 62.6622 53.8928 64.335C52.6032 64.8282 51.1579 64.1826 50.6647 62.893C50.1714 61.6034 50.817 60.1581 52.1066 59.6649C55.1528 58.4998 57.4996 56.1531 58.6647 53.1069C59.1579 51.8173 60.6032 51.1717 61.8928 51.6649Z" fill="#BCED78"/>
</svg>
