<svg width="21" height="21" viewBox="0 0 21 21" fill="none" xmlns="http://www.w3.org/2000/svg">
<path d="M16.508 7.7343C16.8184 7.40092 17.0951 7.02774 17.3429 6.6433C17.6551 6.15965 17.8185 5.61033 17.7192 5.02958C17.5924 4.28919 17.0572 3.71091 16.3381 3.56776C15.5936 3.41936 14.8776 3.75031 14.496 4.40117C14.4669 4.45077 14.3739 4.59342 14.3739 4.59342C14.3739 4.59342 14.2799 4.45087 14.2506 4.40129C13.8681 3.75081 13.1527 3.42094 12.4078 3.57008C11.6889 3.71394 11.1547 4.29275 11.0282 5.0329C10.9291 5.61374 11.0935 6.1629 11.4061 6.64624C11.6543 7.03044 11.9314 7.40297 12.2421 7.73642C12.8797 8.42096 13.6279 9.07362 14.376 9.6687C15.1236 9.07288 15.8711 8.41948 16.508 7.7343Z" stroke="#131518" stroke-width="1.4" stroke-miterlimit="10" stroke-linejoin="round"/>
<rect x="2.75098" y="3.37207" width="5.89175" height="5.89175" stroke="#131518" stroke-width="1.4" stroke-linejoin="round"/>
<rect x="11.2131" y="11.9419" width="5.89175" height="5.89175" stroke="#131518" stroke-width="1.4" stroke-linejoin="round"/>
<rect x="2.75098" y="11.9419" width="5.89175" height="5.89175" stroke="#131518" stroke-width="1.4" stroke-linejoin="round"/>
</svg>
