<svg width="181" height="40" viewBox="0 0 181 40" fill="none" xmlns="http://www.w3.org/2000/svg">
<path d="M32.2381 25.521L34.2705 11.332H30.3219L27.8555 28.6688H38.2689L38.7029 25.521H32.2381Z" fill="#DADDE0"/>
<path d="M43.9174 11.332L41.416 28.6688H45.4207L47.9245 11.332H43.9174Z" fill="#DADDE0"/>
<path d="M62.1216 11.332L56.6769 23.6047L54.8802 11.332H51.1777L54.2926 28.6688H57.6955L65.8218 11.332H62.1216Z" fill="#DADDE0"/>
<path d="M24.221 12.8986C23.1597 11.6566 21.4505 10.8149 19.3531 10.7908C14.1705 10.7329 11.4437 14.049 10.6465 19.9021V19.9262C10.2192 23.0614 10.7407 25.531 12.0249 27.0961C13.0701 28.3647 14.7127 29.0906 16.7848 29.1967C21.9536 29.4596 24.9332 25.9192 25.5626 19.9672C25.9141 16.6656 25.5328 14.4421 24.2187 12.8986M21.5999 20.0154C21.0095 24.3565 19.7138 26.129 17.2672 26.129C16.8687 26.1406 16.4728 26.0581 16.1087 25.8879C15.7445 25.7176 15.4213 25.4638 15.1629 25.1451C14.3865 24.2069 14.1889 22.7093 14.5611 19.9744V19.9479C15.14 15.7926 16.4103 13.8247 18.8569 13.8247C19.8011 13.8247 20.5293 14.1165 21.0072 14.6953C21.7836 15.6358 21.972 17.2637 21.5976 20.0154" fill="#DADDE0"/>
<path d="M69.5176 11.332L66.9062 28.6688H78.2363L78.6736 25.7683H71.5282L72.2948 21.0204H78.7188L79.1084 18.0889H72.6869L73.2674 14.235H80.0283L80.4656 11.332H69.5176Z" fill="#DADDE0"/>
<path d="M96.0018 22.3259L102.703 11.332H98.6912L94.5888 18.3592L92.3777 11.332H88.6016L92.3314 21.7572L91.4122 28.6688H95.1112L95.9754 22.366L96.0018 22.3259Z" fill="#DADDE0"/>
<path d="M117.394 12.8983C116.26 11.6552 114.428 10.8146 112.184 10.7908C106.633 10.7336 103.713 14.0486 102.861 19.9021V19.9259C102.402 23.0694 102.96 25.5294 104.342 27.094C105.46 28.3633 107.219 29.092 109.444 29.1968C114.975 29.4587 118.166 25.9176 118.842 19.9664C119.218 16.6634 118.81 14.4415 117.401 12.8983M114.583 20.0283C113.952 24.3744 112.562 26.139 109.944 26.139C109.517 26.1504 109.093 26.0679 108.703 25.8977C108.313 25.7275 107.967 25.4739 107.69 25.1555C106.859 24.2172 106.648 22.7217 107.046 19.9854V19.9592C107.665 15.8037 109.026 13.8366 111.647 13.8366C112.657 13.8366 113.437 14.1295 113.949 14.7058C114.78 15.6584 114.982 17.2754 114.581 20.0283" fill="#DADDE0"/>
<path d="M150.261 11.332L148.722 23.166L144.661 11.332H140.817L138.5 28.6688H141.93L143.63 16.462L147.751 28.6688H151.369L153.686 11.332H150.261Z" fill="#DADDE0"/>
<path d="M169.976 22.895C169.454 26.4212 166.745 29.5089 161.727 29.1873C159.321 29.0324 157.764 28.1056 156.66 26.6166C155.587 25.168 154.976 22.7688 155.512 19.5619C156.607 12.9861 159.925 10.6036 164.53 10.8013C167.703 10.9395 169.524 12.4238 170.501 15.2209L167.058 16.355C166.818 15.4687 166.033 13.901 164.13 13.7461C161.532 13.5341 159.932 15.7498 159.318 19.9407C158.965 22.4042 158.763 25.6588 161.943 26.0185C164.128 26.2687 165.793 25.3157 166.531 22.5877C166.6 22.3543 166.646 22.1149 166.668 21.8729H162.841L163.274 18.8948H170.402C170.426 18.9972 170.203 21.3678 169.976 22.8807" fill="#DADDE0"/>
<path d="M132.8 11.332L131.246 22.043C130.842 24.2349 130.823 24.848 129.814 25.6647C128.856 26.4387 126.784 26.3748 125.762 25.364C124.957 24.5663 125.276 22.9212 125.487 21.2311L126.784 11.332H122.703L121.227 22.4715C120.833 25.3924 121.876 26.9689 123.856 28.2069C125.432 29.1869 127.61 29.3265 129.021 29.1395C131.523 28.8058 133.172 27.8471 134.128 26.2233C134.724 25.222 135.001 24.2113 135.266 22.4596L136.873 11.3344L132.8 11.332Z" fill="#DADDE0"/>
</svg>
