<svg width="84" height="10" viewBox="0 0 84 10" fill="none" xmlns="http://www.w3.org/2000/svg">
<path d="M11.4132 7.90538L12.4802 0.4375H10.4072L9.1123 9.56213H14.5794L14.8072 7.90538H11.4132Z" fill="#C9CDD2"/>
<path d="M17.5437 0.4375L16.2305 9.56213H18.3329L19.6474 0.4375H17.5437Z" fill="#C9CDD2"/>
<path d="M27.102 0.4375L24.2435 6.89681L23.3002 0.4375H21.3564L22.9917 9.56213H24.7783L29.0446 0.4375H27.102Z" fill="#C9CDD2"/>
<path d="M7.20354 1.26259C6.64634 0.608903 5.74903 0.165917 4.6479 0.153224C1.92702 0.122761 0.495429 1.86805 0.0769258 4.94865V4.96135C-0.147402 6.61144 0.126374 7.91121 0.800563 8.73498C1.34932 9.40264 2.21165 9.7847 3.29952 9.84055C6.01316 9.9789 7.57742 8.11556 7.90788 4.98292C8.09241 3.24525 7.8922 2.07495 7.20234 1.26259M5.82743 5.00831C5.51747 7.29306 4.83725 8.22599 3.5528 8.22599C3.34358 8.23205 3.13574 8.18868 2.94455 8.09905C2.75337 8.00943 2.58371 7.87585 2.44804 7.70812C2.04039 7.21436 1.93667 6.42612 2.13205 4.98673V4.97277C2.43598 2.78576 3.10293 1.75001 4.38739 1.75001C4.88308 1.75001 5.2654 1.90359 5.51626 2.20823C5.92391 2.70326 6.02281 3.56004 5.82622 5.00831" fill="#C9CDD2"/>
<path d="M30.9842 0.4375L29.6133 9.56213H35.5615L35.7911 8.03552H32.0398L32.4423 5.53663H35.8149L36.0194 3.99375H32.6481L32.9529 1.96536H36.5023L36.7319 0.4375H30.9842Z" fill="#C9CDD2"/>
<path d="M44.889 6.22376L48.4073 0.4375H46.301L44.1472 4.13604L42.9864 0.4375H41.0039L42.9621 5.92445L42.4795 9.56213H44.4215L44.8751 6.24487L44.889 6.22376Z" fill="#C9CDD2"/>
<path d="M56.1199 1.26246C55.5243 0.608193 54.5628 0.165748 53.3845 0.153215C50.4705 0.123134 48.9376 1.86784 48.49 4.94865V4.96119C48.249 6.61565 48.5423 7.91039 49.2679 8.73386C49.8545 9.40192 50.7778 9.78545 51.9459 9.8406C54.8497 9.97847 56.5254 8.11469 56.88 4.98249C57.0776 3.24405 56.8634 2.07465 56.1237 1.26246M54.6444 5.01508C54.3128 7.3025 53.5834 8.23126 52.2087 8.23126C51.9846 8.23721 51.762 8.19381 51.5572 8.10424C51.3525 8.01467 51.1707 7.8812 51.0252 7.71361C50.5891 7.21978 50.4781 6.43265 50.6873 4.99252V4.97873C51.0125 2.79158 51.7266 1.75629 53.1026 1.75629C53.6331 1.75629 54.0425 1.91046 54.3116 2.21377C54.7477 2.71513 54.8536 3.56617 54.6431 5.01508" fill="#C9CDD2"/>
<path d="M73.3745 0.4375L72.567 6.66589L70.4349 0.4375H68.4167L67.2002 9.56213H69.0011L69.8935 3.13751L72.0569 9.56213H73.9566L75.1731 0.4375H73.3745Z" fill="#C9CDD2"/>
<path d="M83.7249 6.52389C83.4508 8.37975 82.0286 10.0049 79.3938 9.8356C78.1307 9.75409 77.3135 9.2663 76.7338 8.48258C76.1704 7.72017 75.8496 6.45743 76.1313 4.76959C76.706 1.30865 78.4478 0.0546885 80.8653 0.158767C82.5313 0.231497 83.4874 1.01272 84.0002 2.48487L82.1928 3.08176C82.0665 2.61528 81.6547 1.79018 80.6556 1.70867C79.2915 1.59707 78.4515 2.76325 78.1295 4.96897C77.9438 6.26557 77.8377 7.97848 79.5075 8.16783C80.6543 8.2995 81.5284 7.79791 81.9162 6.36212C81.952 6.23926 81.9762 6.1133 81.9882 5.98593H79.9786L80.2059 4.41848H83.9485C83.9611 4.4724 83.8436 5.7201 83.7249 6.51636" fill="#C9CDD2"/>
<path d="M64.207 0.4375L63.3912 6.07487C63.1793 7.22851 63.169 7.55117 62.6392 7.98098C62.1362 8.38837 61.0484 8.35473 60.5122 7.82277C60.0896 7.40292 60.2569 6.53707 60.3679 5.64755L61.0484 0.4375H58.9061L58.1311 6.30036C57.9243 7.83772 58.472 8.66744 59.5112 9.31901C60.3386 9.83478 61.4825 9.90828 62.223 9.80986C63.5367 9.6342 64.4024 9.12964 64.9041 8.275C65.2169 7.74802 65.3624 7.21605 65.5016 6.29414L66.3455 0.438747L64.207 0.4375Z" fill="#C9CDD2"/>
</svg>
